<?xml version="1.0" encoding="UTF-8"?>
<svg id="a" data-name="Réteg 1" xmlns="http://www.w3.org/2000/svg" xmlns:xlink="http://www.w3.org/1999/xlink" viewBox="0 0 340.16 340.16">
  <defs>
    <style>
      .az {
        filter: url(#t);
      }

      .az, .ba, .bb, .bc, .bd, .be, .bf, .bg, .bh, .bi, .bj, .bk, .bl, .bm, .bn, .bo, .bp, .bq, .br, .bs, .bt, .bu, .bv, .bw, .bx {
        fill: none;
        stroke: #fff;
        stroke-linecap: round;
        stroke-linejoin: round;
        stroke-width: 7px;
      }

      .ba {
        filter: url(#v);
      }

      .bb {
        filter: url(#h);
      }

      .bc {
        filter: url(#z);
      }

      .bd {
        filter: url(#r);
      }

      .be {
        filter: url(#d);
      }

      .bf {
        filter: url(#f);
      }

      .bg {
        filter: url(#l);
      }

      .bh {
        filter: url(#j);
      }

      .bi {
        filter: url(#p);
      }

      .bj {
        filter: url(#n);
      }

      .bk {
        filter: url(#b);
      }

      .bl {
        filter: url(#x);
      }

      .bm {
        filter: url(#ah);
      }

      .bn {
        filter: url(#af);
      }

      .bo {
        filter: url(#an);
      }

      .bp {
        filter: url(#ar);
      }

      .bq {
        filter: url(#at);
      }

      .br {
        filter: url(#ap);
      }

      .bs {
        filter: url(#al);
      }

      .bt {
        filter: url(#av);
      }

      .bu {
        filter: url(#ab);
      }

      .bv {
        filter: url(#ax);
      }

      .bw {
        filter: url(#aj);
      }

      .bx {
        filter: url(#ad);
      }
    </style>
    <filter id="b" data-name="drop-shadow-2" x="11.29" y="261.25" width="7" height="7" filterUnits="userSpaceOnUse">
      <feOffset dx="7" dy="7"/>
      <feGaussianBlur result="c" stdDeviation="5"/>
      <feFlood flood-color="#1d1d1b" flood-opacity=".75"/>
      <feComposite in2="c" operator="in"/>
      <feComposite in="SourceGraphic"/>
    </filter>
    <filter id="d" data-name="drop-shadow-3" x="30.32" y="253.86" width="7" height="7" filterUnits="userSpaceOnUse">
      <feOffset dx="7" dy="7"/>
      <feGaussianBlur result="e" stdDeviation="5"/>
      <feFlood flood-color="#1d1d1b" flood-opacity=".75"/>
      <feComposite in2="e" operator="in"/>
      <feComposite in="SourceGraphic"/>
    </filter>
    <filter id="f" data-name="drop-shadow-4" x="316.37" y="268.11" width="7" height="7" filterUnits="userSpaceOnUse">
      <feOffset dx="7" dy="7"/>
      <feGaussianBlur result="g" stdDeviation="5"/>
      <feFlood flood-color="#1d1d1b" flood-opacity=".75"/>
      <feComposite in2="g" operator="in"/>
      <feComposite in="SourceGraphic"/>
    </filter>
    <filter id="h" data-name="drop-shadow-5" x="320.92" y="256.04" width="7" height="7" filterUnits="userSpaceOnUse">
      <feOffset dx="7" dy="7"/>
      <feGaussianBlur result="i" stdDeviation="5"/>
      <feFlood flood-color="#1d1d1b" flood-opacity=".75"/>
      <feComposite in2="i" operator="in"/>
      <feComposite in="SourceGraphic"/>
    </filter>
    <filter id="j" data-name="drop-shadow-6" x="15.67" y="6.85" width="133.44" height="131.04" filterUnits="userSpaceOnUse">
      <feOffset dx="7" dy="7"/>
      <feGaussianBlur result="k" stdDeviation="5"/>
      <feFlood flood-color="#1d1d1b" flood-opacity=".75"/>
      <feComposite in2="k" operator="in"/>
      <feComposite in="SourceGraphic"/>
    </filter>
    <filter id="l" data-name="drop-shadow-7" x="18.79" y="20.77" width="114.96" height="123.6" filterUnits="userSpaceOnUse">
      <feOffset dx="7" dy="7"/>
      <feGaussianBlur result="m" stdDeviation="5"/>
      <feFlood flood-color="#1d1d1b" flood-opacity=".75"/>
      <feComposite in2="m" operator="in"/>
      <feComposite in="SourceGraphic"/>
    </filter>
    <filter id="n" data-name="drop-shadow-8" x="25.51" y="38.53" width="97.68" height="124.32" filterUnits="userSpaceOnUse">
      <feOffset dx="7" dy="7"/>
      <feGaussianBlur result="o" stdDeviation="5"/>
      <feFlood flood-color="#1d1d1b" flood-opacity=".75"/>
      <feComposite in2="o" operator="in"/>
      <feComposite in="SourceGraphic"/>
    </filter>
    <filter id="p" data-name="drop-shadow-9" x="67.27" y="108.13" width="145.92" height="122.88" filterUnits="userSpaceOnUse">
      <feOffset dx="7" dy="7"/>
      <feGaussianBlur result="q" stdDeviation="5"/>
      <feFlood flood-color="#1d1d1b" flood-opacity=".75"/>
      <feComposite in2="q" operator="in"/>
      <feComposite in="SourceGraphic"/>
    </filter>
    <filter id="r" data-name="drop-shadow-10" x="81.43" y="119.17" width="102.48" height="88.8" filterUnits="userSpaceOnUse">
      <feOffset dx="7" dy="7"/>
      <feGaussianBlur result="s" stdDeviation="5"/>
      <feFlood flood-color="#1d1d1b" flood-opacity=".75"/>
      <feComposite in2="s" operator="in"/>
      <feComposite in="SourceGraphic"/>
    </filter>
    <filter id="t" data-name="drop-shadow-11" x="120.79" y="95.65" width="102.24" height="104.16" filterUnits="userSpaceOnUse">
      <feOffset dx="7" dy="7"/>
      <feGaussianBlur result="u" stdDeviation="5"/>
      <feFlood flood-color="#1d1d1b" flood-opacity=".75"/>
      <feComposite in2="u" operator="in"/>
      <feComposite in="SourceGraphic"/>
    </filter>
    <filter id="v" data-name="drop-shadow-12" x="120.79" y="71.41" width="129.84" height="95.52" filterUnits="userSpaceOnUse">
      <feOffset dx="7" dy="7"/>
      <feGaussianBlur result="w" stdDeviation="5"/>
      <feFlood flood-color="#1d1d1b" flood-opacity=".75"/>
      <feComposite in2="w" operator="in"/>
      <feComposite in="SourceGraphic"/>
    </filter>
    <filter id="x" data-name="drop-shadow-13" x="152.23" y="84.61" width="84.72" height="98.88" filterUnits="userSpaceOnUse">
      <feOffset dx="7" dy="7"/>
      <feGaussianBlur result="y" stdDeviation="5"/>
      <feFlood flood-color="#1d1d1b" flood-opacity=".75"/>
      <feComposite in2="y" operator="in"/>
      <feComposite in="SourceGraphic"/>
    </filter>
    <filter id="z" data-name="drop-shadow-14" x="197.83" y="3.73" width="116.64" height="117.12" filterUnits="userSpaceOnUse">
      <feOffset dx="7" dy="7"/>
      <feGaussianBlur result="aa" stdDeviation="5"/>
      <feFlood flood-color="#1d1d1b" flood-opacity=".75"/>
      <feComposite in2="aa" operator="in"/>
      <feComposite in="SourceGraphic"/>
    </filter>
    <filter id="ab" data-name="drop-shadow-15" x="199.51" y="27.25" width="126" height="108" filterUnits="userSpaceOnUse">
      <feOffset dx="7" dy="7"/>
      <feGaussianBlur result="ac" stdDeviation="5"/>
      <feFlood flood-color="#1d1d1b" flood-opacity=".75"/>
      <feComposite in2="ac" operator="in"/>
      <feComposite in="SourceGraphic"/>
    </filter>
    <filter id="ad" data-name="drop-shadow-16" x="207.91" y="33.25" width="142.8" height="108" filterUnits="userSpaceOnUse">
      <feOffset dx="7" dy="7"/>
      <feGaussianBlur result="ae" stdDeviation="5"/>
      <feFlood flood-color="#1d1d1b" flood-opacity=".75"/>
      <feComposite in2="ae" operator="in"/>
      <feComposite in="SourceGraphic"/>
    </filter>
    <filter id="af" data-name="drop-shadow-17" x="151.75" y="109.81" width="142.8" height="131.76" filterUnits="userSpaceOnUse">
      <feOffset dx="7" dy="7"/>
      <feGaussianBlur result="ag" stdDeviation="5"/>
      <feFlood flood-color="#1d1d1b" flood-opacity=".75"/>
      <feComposite in2="ag" operator="in"/>
      <feComposite in="SourceGraphic"/>
    </filter>
    <filter id="ah" data-name="drop-shadow-18" x="160.39" y="139.57" width="120.48" height="86.16" filterUnits="userSpaceOnUse">
      <feOffset dx="7" dy="7"/>
      <feGaussianBlur result="ai" stdDeviation="5"/>
      <feFlood flood-color="#1d1d1b" flood-opacity=".75"/>
      <feComposite in2="ai" operator="in"/>
      <feComposite in="SourceGraphic"/>
    </filter>
    <filter id="aj" data-name="drop-shadow-19" x="107.35" y="142.21" width="126.24" height="137.28" filterUnits="userSpaceOnUse">
      <feOffset dx="7" dy="7"/>
      <feGaussianBlur result="ak" stdDeviation="5"/>
      <feFlood flood-color="#1d1d1b" flood-opacity=".75"/>
      <feComposite in2="ak" operator="in"/>
      <feComposite in="SourceGraphic"/>
    </filter>
    <filter id="al" data-name="drop-shadow-20" x="115.27" y="157.33" width="86.64" height="99.36" filterUnits="userSpaceOnUse">
      <feOffset dx="7" dy="7"/>
      <feGaussianBlur result="am" stdDeviation="5"/>
      <feFlood flood-color="#1d1d1b" flood-opacity=".75"/>
      <feComposite in2="am" operator="in"/>
      <feComposite in="SourceGraphic"/>
    </filter>
    <filter id="an" data-name="drop-shadow-21" x="1.27" y="193.33" width="147.12" height="135.36" filterUnits="userSpaceOnUse">
      <feOffset dx="7" dy="7"/>
      <feGaussianBlur result="ao" stdDeviation="5"/>
      <feFlood flood-color="#1d1d1b" flood-opacity=".75"/>
      <feComposite in2="ao" operator="in"/>
      <feComposite in="SourceGraphic"/>
    </filter>
    <filter id="ap" data-name="drop-shadow-22" x="5.35" y="206.29" width="145.92" height="137.28" filterUnits="userSpaceOnUse">
      <feOffset dx="7" dy="7"/>
      <feGaussianBlur result="aq" stdDeviation="5"/>
      <feFlood flood-color="#1d1d1b" flood-opacity=".75"/>
      <feComposite in2="aq" operator="in"/>
      <feComposite in="SourceGraphic"/>
    </filter>
    <filter id="ar" data-name="drop-shadow-23" x="25.51" y="223.81" width="137.76" height="115.68" filterUnits="userSpaceOnUse">
      <feOffset dx="7" dy="7"/>
      <feGaussianBlur result="as" stdDeviation="5"/>
      <feFlood flood-color="#1d1d1b" flood-opacity=".75"/>
      <feComposite in2="as" operator="in"/>
      <feComposite in="SourceGraphic"/>
    </filter>
    <filter id="at" data-name="drop-shadow-24" x="203.59" y="193.33" width="144" height="156.96" filterUnits="userSpaceOnUse">
      <feOffset dx="7" dy="7"/>
      <feGaussianBlur result="au" stdDeviation="5"/>
      <feFlood flood-color="#1d1d1b" flood-opacity=".75"/>
      <feComposite in2="au" operator="in"/>
      <feComposite in="SourceGraphic"/>
    </filter>
    <filter id="av" data-name="drop-shadow-25" x="217.99" y="183.97" width="134.16" height="154.32" filterUnits="userSpaceOnUse">
      <feOffset dx="7" dy="7"/>
      <feGaussianBlur result="aw" stdDeviation="5"/>
      <feFlood flood-color="#1d1d1b" flood-opacity=".75"/>
      <feComposite in2="aw" operator="in"/>
      <feComposite in="SourceGraphic"/>
    </filter>
    <filter id="ax" data-name="drop-shadow-26" x="232.39" y="174.37" width="122.16" height="143.52" filterUnits="userSpaceOnUse">
      <feOffset dx="7" dy="7"/>
      <feGaussianBlur result="ay" stdDeviation="5"/>
      <feFlood flood-color="#1d1d1b" flood-opacity=".75"/>
      <feComposite in2="ay" operator="in"/>
      <feComposite in="SourceGraphic"/>
    </filter>
  </defs>
  <path class="bk" d="M11.29,261.25"/>
  <path class="be" d="M30.32,253.86"/>
  <path class="bf" d="M316.37,268.11"/>
  <path class="bb" d="M320.92,256.04"/>
  <path class="bh" d="M27.3,18.53c23.32,2.75,44.45,16.13,60.25,33.51,15.79,17.37,26.76,38.57,36.03,60.14"/>
  <path class="bg" d="M30.37,32.37c34.98,18.69,64.68,48.96,77.78,86.39"/>
  <path class="bj" d="M37.15,50.27c28.37,21.88,49.75,52.68,60.33,86.91"/>
  <path class="bi" d="M145.4,119.74c-16.9,5.09-33.05,12.67-47.77,22.42-7.67,5.08-15.41,11.39-17.82,20.27-1.27,4.67-.91,9.66.21,14.38,2.79,11.74,10.45,22.24,20.77,28.5,8.62-29.19,31.97-53.61,60.75-63.53,9.03-3.11,17.17-5.53,26.01-1.9"/>
  <path class="bd" d="M93.04,182.37c1.83-14.87,11.1-28.24,23.28-36.95s27.05-13.12,41.96-14.67"/>
  <path class="az" d="M132.45,107.44c21.31-1.91,44.05,9.32,54.55,27.97,7.34,13.04,9.15,23.94,10.37,38.85"/>
  <path class="ba" d="M132.45,107.44c8.04-6.68,16.75-12.54,25.97-17.47,10.66-5.7,24.01-10.06,34.42-3.92,5.14,3.03,8.64,8.16,11.76,13.23,8.18,13.28,15.01,27.4,20.35,42.06"/>
  <path class="bl" d="M163.83,96.17c12.52,6.11,24.95,13.09,34.28,23.43,9.33,10.34,15.2,24.65,12.45,38.31"/>
  <path class="bc" d="M288.7,15.42c.96,4.5-1.69,8.89-4.26,12.7-19.13,28.3-42.54,56.2-74.87,67.22"/>
  <path class="bu" d="M299.86,38.75c-12.9,15.2-26.77,29.57-41.5,43.01-7.39,6.74-15.12,13.33-24.18,17.58-8.44,3.96-14.82,5.78-22.94,10.36"/>
  <path class="bx" d="M219.45,115.56c26.31-4.9,51.28-16.84,71.6-34.26,12.65-10.84,23.43-23.65,34.15-36.4"/>
  <path class="bn" d="M163.46,189.48c4.76-.62,16.3-6.1,33.91-15.21,10.4-5.39,17.19-7.38,24.76-16.32,8.05-9.51,11.85-21.82,15.14-33.84.47-1.72,2.69-3.73,3.49-2.13,10.18,6.34,18.92,14.98,25.37,25.09,1.43,2.24,2.79,4.7,2.81,7.36.01,1.93-.68,3.78-1.49,5.53-4.78,10.41-13.53,18.45-22.7,25.31-17.79,13.32-40.29,24.78-61.69,30.78"/>
  <path class="bm" d="M172,200.05c35.29-4.07,64.31-26.44,83.16-48.98"/>
  <path class="bw" d="M139.48,153.95c4.75,16.89,10.69,33.95,22.02,47.35,11.33,13.39,29.16,22.52,46.38,19.16-5.39,7.07-10.79,14.15-16.18,21.22-2.19,2.87-4.42,5.79-7.31,7.95-6.07,4.56-14.48,5.2-21.74,3.01s-13.53-6.92-18.9-12.29c-15.6-15.6-24.69-37.52-24.7-59.58"/>
  <path class="bs" d="M126.88,168.91c3.13,12.55,7.6,24.77,13.31,36.38,2.94,5.98,6.4,12.01,11.86,15.83,7.22,5.04,16.82,5.45,24.33,10.06"/>
  <path class="bo" d="M122.66,204.9c-28.92,5.97-57.57,26.4-77.39,48.29-7.4,8.18-13.81,17.2-20.02,26.31-5,7.34-9.97,14.93-12.27,23.52"/>
  <path class="br" d="M125.66,217.84c-17.11-.51-31.99,11.61-46.66,21.99-27.25,19.28-47.79,47.87-62.08,78.04"/>
  <path class="bp" d="M137.53,235.47c-7.52,1.7-21.87,6.48-29.39,8.18-8.23,1.86-7.38,2.77-15.11,6.13-12.94,5.63-23.63,17.79-32.59,28.69-8.97,10.9-16.15,23.12-23.3,35.29"/>
  <path class="bq" d="M215.14,204.9c15.81,52.96,56.05,98.08,106.86,119.84"/>
  <path class="bt" d="M229.51,195.53c13.58,50.72,49.9,94.02,97.05,117.14"/>
  <path class="bv" d="M243.9,185.9c3.86,14.68,8.41,27.64,15.53,41.05,3.2,6.03,6.72,11.9,10.92,17.27,3.87,4.95,8.28,9.43,12.68,13.91,13.48,13.7,27.65,27.85,45.84,34.05"/>
</svg>